<?xml version="1.0" standalone="no"?>
<!DOCTYPE svg PUBLIC "-//W3C//DTD SVG 20010904//EN"
 "http://www.w3.org/TR/2001/REC-SVG-20010904/DTD/svg10.dtd">
<svg 
 width="308.7612359841165"
   height="304.915625"
   viewBox="0 0 106.00782394174519 104.68749999999999"
   class="css-1j8o68f"
   version="1.1"
   id="svg23"
   sodipodi:docname="Slogo.svg"
   xmlns:inkscape="http://www.inkscape.org/namespaces/inkscape"
   xmlns:sodipodi="http://sodipodi.sourceforge.net/DTD/sodipodi-0.dtd"
   xmlns="http://www.w3.org/2000/svg"
   xmlns:svg="http://www.w3.org/2000/svg">
<g transform="translate(0.000000,1500.000000) scale(0.100000,-0.100000)"
fill="#000000" stroke="none">
<path d="M0 7500 l0 -7500 10000 0 10000 0 0 7500 0 7500 -10000 0 -10000 0 0
-7500z m10630 4965 c693 -68 1269 -232 1860 -531 162 -81 438 -238 462 -262 4
-4 7 -375 6 -824 l-3 -816 -100 75 c-759 566 -1478 856 -2315 933 -150 14
-572 14 -725 0 -495 -46 -868 -166 -1159 -374 -203 -145 -346 -346 -408 -576
-20 -75 -22 -108 -22 -275 0 -178 2 -196 27 -278 77 -249 223 -426 517 -622
261 -175 641 -321 1560 -601 697 -211 1310 -422 1655 -568 600 -254 1114 -725
1333 -1221 119 -269 177 -548 189 -900 22 -691 -178 -1300 -603 -1835 -95
-119 -350 -370 -474 -466 -450 -348 -988 -589 -1595 -714 -576 -119 -1250
-129 -1897 -30 -806 124 -1713 472 -2395 921 l-53 34 0 843 c0 463 3 842 6
842 3 0 58 -39 122 -87 650 -486 1352 -844 2012 -1027 403 -111 741 -157 1160
-157 713 0 1262 165 1662 497 291 243 438 556 438 934 0 255 -59 458 -185 635
-80 112 -264 277 -424 380 -260 166 -764 349 -1786 650 -650 192 -1244 405
-1560 561 -478 235 -920 645 -1115 1034 -94 188 -162 414 -196 656 -28 194
-26 605 5 804 86 565 310 1018 693 1401 585 585 1405 913 2447 979 188 12 674
3 861 -15z"/>
</g>
</svg>
